<?xml version="1.0" encoding="UTF-8"?>
<svg width="35px" height="35px" viewBox="0 0 35 35" version="1.1" xmlns="http://www.w3.org/2000/svg" xmlns:xlink="http://www.w3.org/1999/xlink">
    <title>i</title>
    <g id="Symbols" stroke="none" stroke-width="1" fill="none" fill-rule="evenodd">
        <g id="i">
            <path d="M0,17.5 C0,7.83501688 7.83289181,0 17.5,0 L17.5,0 C27.1649831,0 35,7.83289181 35,17.5 L35,17.5 C35,27.1649831 27.1671082,35 17.5,35 L17.5,35 C7.83501688,35 0,27.1671082 0,17.5 L0,17.5 Z" id="Rectangle-3-Copy-3" fill="#44C0FF"></path>
            <g id="Group" transform="translate(16.000000, 10.000000)" fill="#FFFFFF" fill-rule="nonzero">
                <g id="Shape">
                    <path d="M1.5,2.79425233 C1.10807171,2.80365335 0.726728832,2.66831539 0.430811384,2.41479903 C0.145651797,2.16383217 -0.0111429639,1.80058611 0.00313593765,1.42400432 C-0.0246058,1.02677974 0.132836576,0.638751664 0.430811384,0.369967385 C1.05578686,-0.123322462 1.94421314,-0.123322462 2.56918862,0.369967385 C2.86716342,0.638751664 3.0246058,1.02677974 2.99686406,1.42400432 C3.01114296,1.80058611 2.8543482,2.16383217 2.56918862,2.41479903 C2.27327117,2.66831539 1.89192829,2.80365335 1.5,2.79425233 L1.5,2.79425233 Z M0.259741205,4.64935733 L2.71887502,4.64935733 L2.71887502,15 L0.259741205,15 L0.259741205,4.64935733 Z"></path>
                </g>
            </g>
        </g>
    </g>
</svg>